<svg xmlns="http://www.w3.org/2000/svg" width="25.815" height="25.815" viewBox="0 0 25.815 25.815">
  <path id="Instagram_Icon" d="M12.907,2.295a39.577,39.577,0,0,1,5.163.143,6.652,6.652,0,0,1,2.438.43,5.037,5.037,0,0,1,2.438,2.438,6.652,6.652,0,0,1,.43,2.438c0,1.291.143,1.721.143,5.163a39.577,39.577,0,0,1-.143,5.163,6.652,6.652,0,0,1-.43,2.438,5.037,5.037,0,0,1-2.438,2.438,6.652,6.652,0,0,1-2.438.43c-1.291,0-1.721.143-5.163.143a39.577,39.577,0,0,1-5.163-.143,6.652,6.652,0,0,1-2.438-.43,5.037,5.037,0,0,1-2.438-2.438,6.652,6.652,0,0,1-.43-2.438c0-1.291-.143-1.721-.143-5.163a39.577,39.577,0,0,1,.143-5.163,6.652,6.652,0,0,1,.43-2.438,5.151,5.151,0,0,1,1-1.434,2.425,2.425,0,0,1,1.434-1,6.652,6.652,0,0,1,2.438-.43,39.577,39.577,0,0,1,5.163-.143m0-2.295A42.375,42.375,0,0,0,7.6.143,8.854,8.854,0,0,0,4.446.717,5.614,5.614,0,0,0,2.151,2.151,5.614,5.614,0,0,0,.717,4.446,6.534,6.534,0,0,0,.143,7.6,42.375,42.375,0,0,0,0,12.907a42.375,42.375,0,0,0,.143,5.306,8.854,8.854,0,0,0,.574,3.155,5.614,5.614,0,0,0,1.434,2.295A5.614,5.614,0,0,0,4.446,25.1a8.854,8.854,0,0,0,3.155.574,42.375,42.375,0,0,0,5.306.143,42.375,42.375,0,0,0,5.306-.143,8.854,8.854,0,0,0,3.155-.574A6.017,6.017,0,0,0,25.1,21.369a8.854,8.854,0,0,0,.574-3.155c0-1.434.143-1.864.143-5.306A42.375,42.375,0,0,0,25.671,7.6,8.854,8.854,0,0,0,25.1,4.446a5.614,5.614,0,0,0-1.434-2.295A5.614,5.614,0,0,0,21.369.717,8.854,8.854,0,0,0,18.214.143,42.375,42.375,0,0,0,12.907,0m0,6.31a6.491,6.491,0,0,0-6.6,6.6,6.6,6.6,0,1,0,6.6-6.6m0,10.9a4.226,4.226,0,0,1-4.3-4.3,4.226,4.226,0,0,1,4.3-4.3,4.226,4.226,0,0,1,4.3,4.3,4.226,4.226,0,0,1-4.3,4.3M19.791,4.446a1.578,1.578,0,1,0,1.578,1.578,1.592,1.592,0,0,0-1.578-1.578" fill="#fff" fill-rule="evenodd"/>
</svg>
