<svg xmlns="http://www.w3.org/2000/svg" width="90.164" height="90.164" viewBox="0 0 90.164 90.164">
  <g id="rating_low" transform="translate(0 0)">
    <g id="Group_55" data-name="Group 55" transform="translate(0 0)">
      <g id="Group_50" data-name="Group 50" transform="translate(0 0)">
        <g id="Group_47" data-name="Group 47">
          <circle id="Ellipse_12" data-name="Ellipse 12" cx="31.878" cy="31.878" r="31.878" transform="translate(0 45.082) rotate(-45)" fill="#ffd05d"/>
        </g>
        <g id="Group_48" data-name="Group 48" transform="translate(18.219 17.874)">
          <path id="Path_209" data-name="Path 209" d="M378.078,92.814a31.882,31.882,0,0,1-43.541,44.341,31.88,31.88,0,1,0,43.541-44.341Z" transform="translate(-334.537 -92.814)" fill="#fdc453"/>
        </g>
        <g id="Group_49" data-name="Group 49" transform="translate(15.334 15.558)">
          <path id="Path_210" data-name="Path 210" d="M329.024,119.508a29.6,29.6,0,0,1,53.057-18.042,29.6,29.6,0,1,0-49.125,32.793A29.463,29.463,0,0,1,329.024,119.508Z" transform="translate(-326.821 -86.621)" fill="#ffd77f"/>
        </g>
      </g>
      <g id="Group_54" data-name="Group 54" transform="translate(30.989 33.389)">
        <g id="Group_53" data-name="Group 53">
          <g id="Group_51" data-name="Group 51">
            <path id="Path_211" data-name="Path 211" d="M373.379,138.257c0,2.187-1.052,3.959-2.349,3.959s-2.349-1.772-2.349-3.959,1.052-3.959,2.349-3.959S373.379,136.071,373.379,138.257Z" transform="translate(-368.681 -134.298)" fill="#303030"/>
          </g>
          <g id="Group_52" data-name="Group 52" transform="translate(23.488)">
            <path id="Path_212" data-name="Path 212" d="M436.183,138.257c0,2.187-1.052,3.959-2.349,3.959s-2.349-1.772-2.349-3.959,1.052-3.959,2.349-3.959S436.183,136.071,436.183,138.257Z" transform="translate(-431.485 -134.298)" fill="#303030"/>
          </g>
        </g>
      </g>
    </g>
    <g id="Group_56" data-name="Group 56" transform="translate(26.153 24.889)">
      <path id="Path_213" data-name="Path 213" d="M438.784,117.346c-.343-.1-.677-.193-1-.284-.716-.2-1.393-.39-2.046-.617a18.163,18.163,0,0,1-2.686-1.142,15.968,15.968,0,0,1-2.428-1.575,23.942,23.942,0,0,1-2.31-2.117.139.139,0,0,0-.237.1,6.076,6.076,0,0,0,1.246,3.254,7.95,7.95,0,0,0,2.7,2.293,8.39,8.39,0,0,0,3.258.936l.131.009a7.021,7.021,0,0,0,3.4-.6.138.138,0,0,0-.02-.258Z" transform="translate(-401.025 -111.57)" fill="#414042"/>
      <path id="Path_214" data-name="Path 214" d="M355.849,117.346c.343-.1.677-.193,1-.284.717-.2,1.393-.39,2.046-.617a18.167,18.167,0,0,0,2.686-1.142,16,16,0,0,0,2.428-1.575,24.054,24.054,0,0,0,2.31-2.117.138.138,0,0,1,.237.1,6.072,6.072,0,0,1-1.245,3.254,7.952,7.952,0,0,1-2.7,2.293,8.386,8.386,0,0,1-3.258.936l-.131.009a7.022,7.022,0,0,1-3.4-.6.139.139,0,0,1,.021-.258Z" transform="translate(-355.749 -111.57)" fill="#414042"/>
    </g>
    <path id="Path_215" data-name="Path 215" d="M373.261,182.747c-.333.038-.524-.374-.521-.682a9.722,9.722,0,0,1,1.123-4.3,12.026,12.026,0,0,1,2.87-3.551,13.655,13.655,0,0,1,8.581-3.112,12.98,12.98,0,0,1,8.638,3.094,10.877,10.877,0,0,1,3.938,7.86c.005.326-.215.746-.577.681-.3-.053-.544-.46-.764-.643q-.511-.425-1.054-.806a21.248,21.248,0,0,0-2.258-1.38,16.933,16.933,0,0,0-9.388-2.075,16.184,16.184,0,0,0-5.944,1.753,20.813,20.813,0,0,0-3.156,2.009c-.376.288-.994,1.06-1.457,1.148Z" transform="translate(-340.233 -123.947)" fill="#5e4939"/>
  </g>
</svg>
