<svg xmlns="http://www.w3.org/2000/svg" width="90.164" height="90.164" viewBox="0 0 90.164 90.164">
  <g id="rating_veryLow" transform="translate(0 0)">
    <g id="Group_62" data-name="Group 62" transform="translate(0 0)">
      <g id="Group_61" data-name="Group 61">
        <g id="Group_58" data-name="Group 58">
          <circle id="Ellipse_13" data-name="Ellipse 13" cx="31.878" cy="31.878" r="31.878" transform="translate(0 45.082) rotate(-45)" fill="#ffd05d"/>
        </g>
        <g id="Group_59" data-name="Group 59" transform="translate(18.257 17.839)">
          <path id="Path_216" data-name="Path 216" d="M834.93,88.373a31.883,31.883,0,0,1-43.445,44.435A31.88,31.88,0,1,0,834.93,88.373Z" transform="translate(-791.485 -88.373)" fill="#fdc453"/>
        </g>
        <g id="Group_60" data-name="Group 60" transform="translate(15.334 15.559)">
          <path id="Path_217" data-name="Path 217" d="M785.881,115.223A29.6,29.6,0,0,1,838.9,97.067a29.6,29.6,0,1,0-49.054,32.9A29.458,29.458,0,0,1,785.881,115.223Z" transform="translate(-783.671 -82.277)" fill="#ffd77f"/>
        </g>
      </g>
    </g>
    <g id="Group_63" data-name="Group 63" transform="translate(39.326 42.922)">
      <ellipse id="Ellipse_14" data-name="Ellipse 14" cx="5.757" cy="9.759" rx="5.757" ry="9.759" transform="translate(0 0)" fill="#695342"/>
      <path id="Path_218" data-name="Path 218" d="M860.141,193.4a8.836,8.836,0,0,0-9.6.311c1.039,2.548,2.773,4.218,4.738,4.218C857.326,197.934,859.119,196.126,860.141,193.4Z" transform="translate(-849.525 -178.415)" fill="#f06669"/>
    </g>
    <g id="Group_68" data-name="Group 68" transform="translate(26.235 33.722)">
      <g id="Group_64" data-name="Group 64" transform="translate(0.603 5.02)">
        <path id="Path_219" data-name="Path 219" d="M822.82,144.267l-8.39,5.343.207,27.281a31.742,31.742,0,0,0,8.183,4.038Z" transform="translate(-814.43 -144.267)" fill="#7cc4e8"/>
        <path id="Path_220" data-name="Path 220" d="M889.595,144.267l8.39,5.343-.207,27.281a31.744,31.744,0,0,1-8.183,4.038Z" transform="translate(-861.483 -144.267)" fill="#7cc4e8"/>
      </g>
      <g id="Group_67" data-name="Group 67" transform="translate(0)">
        <g id="Group_65" data-name="Group 65">
          <path id="Path_221" data-name="Path 221" d="M814.47,142.154a1.351,1.351,0,0,1-.831-2.417l4.6-3.582-4.753-2.8a1.351,1.351,0,1,1,1.37-2.33l6.467,3.8a1.351,1.351,0,0,1,.145,2.231l-6.167,4.8A1.345,1.345,0,0,1,814.47,142.154Z" transform="translate(-812.817 -130.843)" fill="#303030"/>
        </g>
        <g id="Group_66" data-name="Group 66" transform="translate(28.526 0)">
          <path id="Path_222" data-name="Path 222" d="M896.607,142.154a1.346,1.346,0,0,1-.83-.285l-6.166-4.8a1.351,1.351,0,0,1,.146-2.231l6.466-3.8a1.351,1.351,0,1,1,1.37,2.33l-4.752,2.8,4.6,3.582a1.351,1.351,0,0,1-.831,2.417Z" transform="translate(-889.09 -130.843)" fill="#303030"/>
        </g>
      </g>
    </g>
  </g>
</svg>
