<svg xmlns="http://www.w3.org/2000/svg" width="90.163" height="90.163" viewBox="0 0 90.163 90.163">
  <g id="rating_high" transform="translate(0 0)">
    <g id="Group_33" data-name="Group 33" transform="translate(0 0)">
      <g id="Group_30" data-name="Group 30" transform="translate(0)">
        <circle id="Ellipse_8" data-name="Ellipse 8" cx="31.878" cy="31.878" r="31.878" transform="translate(0 45.082) rotate(-45)" fill="#ffd05d"/>
      </g>
      <g id="Group_31" data-name="Group 31" transform="translate(18.219 17.874)">
        <path id="Path_198" data-name="Path 198" d="M149.653,88.469a31.882,31.882,0,0,1-43.54,44.341,31.88,31.88,0,1,0,43.54-44.341Z" transform="translate(-106.113 -88.469)" fill="#fdc453"/>
      </g>
      <g id="Group_32" data-name="Group 32" transform="translate(15.334 15.558)">
        <path id="Path_199" data-name="Path 199" d="M100.6,115.163a29.6,29.6,0,0,1,53.057-18.042,29.6,29.6,0,1,0-49.124,32.793A29.458,29.458,0,0,1,100.6,115.163Z" transform="translate(-98.397 -82.276)" fill="#ffd77f"/>
      </g>
    </g>
    <g id="Group_37" data-name="Group 37" transform="translate(30.989 33.389)">
      <g id="Group_36" data-name="Group 36" transform="translate(0)">
        <g id="Group_34" data-name="Group 34">
          <path id="Path_200" data-name="Path 200" d="M144.954,133.912c0,2.186-1.052,3.959-2.349,3.959s-2.349-1.773-2.349-3.959,1.052-3.959,2.349-3.959S144.954,131.725,144.954,133.912Z" transform="translate(-140.256 -129.953)" fill="#303030"/>
        </g>
        <g id="Group_35" data-name="Group 35" transform="translate(23.488)">
          <path id="Path_201" data-name="Path 201" d="M207.758,133.912c0,2.186-1.051,3.959-2.349,3.959s-2.349-1.773-2.349-3.959,1.052-3.959,2.349-3.959S207.758,131.725,207.758,133.912Z" transform="translate(-203.06 -129.953)" fill="#303030"/>
        </g>
      </g>
    </g>
    <path id="Path_202" data-name="Path 202" d="M120.664,169.28a21.559,21.559,0,0,0,42.841,0Z" transform="translate(-97.003 -121.183)" fill="#695342"/>
    <path id="Path_203" data-name="Path 203" d="M138.376,199.406a21.539,21.539,0,0,0,29.087.466l-.2-.463C152.88,192.394,138.572,199.311,138.376,199.406Z" transform="translate(-108.09 -138.079)" fill="#f06669"/>
  </g>
</svg>
