<svg xmlns="http://www.w3.org/2000/svg" xmlns:xlink="http://www.w3.org/1999/xlink" width="27" height="27" viewBox="0 0 27 27">
  <defs>
    <clipPath id="clip-path">
      <rect width="27" height="27" fill="none"/>
    </clipPath>
  </defs>
  <g id="Search_Icon" clip-path="url(#clip-path)">
    <rect id="Rectangle_176" data-name="Rectangle 176" width="27" height="27" transform="translate(0)" fill="none"/>
    <path id="Path_99" data-name="Path 99" d="M26.734,24.38l-5.549-5.549A11.512,11.512,0,0,0,23.54,11.77,11.7,11.7,0,0,0,11.77,0,11.7,11.7,0,0,0,0,11.77,11.7,11.7,0,0,0,11.77,23.54a11.512,11.512,0,0,0,7.062-2.354l5.549,5.549ZM3.363,11.77A8.325,8.325,0,0,1,11.77,3.363a8.325,8.325,0,0,1,8.407,8.407,8.325,8.325,0,0,1-8.407,8.407A8.325,8.325,0,0,1,3.363,11.77Z" fill="#aaa"/>
  </g>
</svg>
