<svg id="shopping-cart" xmlns="http://www.w3.org/2000/svg" width="32" height="27" viewBox="0 0 32 27">
  <g id="Group_31" data-name="Group 31">
    <g id="Group_30" data-name="Group 30">
      <path id="Path_201" data-name="Path 201" d="M29.658,2.241H5.818a.9.9,0,0,0-.2.036L5.028.794A1.461,1.461,0,0,0,3.636,0H.727A.66.66,0,0,0,0,.56V1.68a.66.66,0,0,0,.727.56H2.559L7.1,13.742l-1.7,1.525a1.959,1.959,0,0,0-.664,2.191,2.906,2.906,0,0,0,2.784,1.588H28.364a.66.66,0,0,0,.727-.56v-1.12a.66.66,0,0,0-.727-.56H7.526l2.305-2.072a1.136,1.136,0,0,0,.145-.169H24.07A3.068,3.068,0,0,0,26.7,13.277l5.075-8.306A1.48,1.48,0,0,0,32,4.2V4.045A2.127,2.127,0,0,0,29.658,2.241Z" fill="#fff"/>
      <circle id="Ellipse_4" data-name="Ellipse 4" cx="2.68" cy="2.68" r="2.68" transform="translate(4.808 21.636)" fill="#fff"/>
      <circle id="Ellipse_5" data-name="Ellipse 5" cx="2.682" cy="2.682" r="2.682" transform="translate(21.455 21.636)" fill="#fff"/>
    </g>
  </g>
</svg>
