<svg xmlns="http://www.w3.org/2000/svg" width="39" height="40" viewBox="0 0 39 40">
  <g id="twitter_icon2" transform="translate(0.082 0.925)">
    <rect id="Rectangle_393" data-name="Rectangle 393" width="39" height="40" transform="translate(-0.082 -0.925)" fill="none"/>
    <path id="Path_2" data-name="Path 2" d="M50.1,33c14.44,0,22.3-11.892,22.3-22.3V9.645A17.261,17.261,0,0,0,76.223,5.61a17.628,17.628,0,0,1-4.459,1.274,8.262,8.262,0,0,0,3.4-4.247,19.477,19.477,0,0,1-4.884,1.911A7.584,7.584,0,0,0,64.544,2a7.978,7.978,0,0,0-7.857,7.857,4.14,4.14,0,0,0,.212,1.7A21.954,21.954,0,0,1,40.761,3.274,8.132,8.132,0,0,0,39.7,7.309a8.437,8.437,0,0,0,3.4,6.583,7.159,7.159,0,0,1-3.61-1.062h0a7.761,7.761,0,0,0,6.37,7.645,6.546,6.546,0,0,1-2.123.212,3.614,3.614,0,0,1-1.486-.212A8.045,8.045,0,0,0,49.679,26a16.033,16.033,0,0,1-9.768,3.4A5.879,5.879,0,0,1,38,29.181,20.043,20.043,0,0,0,50.1,33" transform="translate(-37.305 3.572)" fill="#008eff" fill-rule="evenodd"/>
  </g>
</svg>
