<svg xmlns="http://www.w3.org/2000/svg" width="25.815" height="20.939" viewBox="0 0 25.815 20.939">
  <path id="Twitter_Icon" d="M46.175,22.939A14.925,14.925,0,0,0,61.233,7.88V7.163a11.658,11.658,0,0,0,2.581-2.725A11.905,11.905,0,0,1,60.8,5.3,5.58,5.58,0,0,0,63.1,2.43a13.155,13.155,0,0,1-3.3,1.291A5.122,5.122,0,0,0,55.927,2a5.388,5.388,0,0,0-5.306,5.306,2.8,2.8,0,0,0,.143,1.147,14.828,14.828,0,0,1-10.9-5.593,5.492,5.492,0,0,0-.717,2.725,5.7,5.7,0,0,0,2.295,4.446A4.835,4.835,0,0,1,39,9.314h0a5.241,5.241,0,0,0,4.3,5.163,4.421,4.421,0,0,1-1.434.143,2.441,2.441,0,0,1-1-.143,5.433,5.433,0,0,0,5.02,3.729,10.828,10.828,0,0,1-6.6,2.295A3.971,3.971,0,0,1,38,20.357a13.537,13.537,0,0,0,8.175,2.581" transform="translate(-38 -2)" fill="#fff" fill-rule="evenodd"/>
</svg>
