<svg xmlns="http://www.w3.org/2000/svg" width="25.815" height="25.815" viewBox="0 0 25.815 25.815">
  <path id="Website_Icon" d="M3.872,3.872A11.718,11.718,0,0,1,12.907,0a11.718,11.718,0,0,1,9.035,3.872,11.718,11.718,0,0,1,3.872,9.035,11.718,11.718,0,0,1-3.872,9.035,11.718,11.718,0,0,1-9.035,3.872,11.718,11.718,0,0,1-9.035-3.872A12.881,12.881,0,0,1,0,12.907,11.718,11.718,0,0,1,3.872,3.872ZM14.628,23.233q1.291,0,3.227-1.936a9.4,9.4,0,0,0,1.506-4.518A3.563,3.563,0,0,0,18.285,14.2a3.787,3.787,0,0,0-2.8-1.291H13.338a6.281,6.281,0,0,1-1.936-.43,1.953,1.953,0,0,1-.645-1.506,1.118,1.118,0,0,1,.43-.86,1.631,1.631,0,0,1,.86-.43,1.468,1.468,0,0,1,1.076.645c.43.215.645.43.86.43a1.293,1.293,0,0,0,.86-.215,1.293,1.293,0,0,0,.215-.86,3.423,3.423,0,0,0-1.076-2.151,8.9,8.9,0,0,0,1.076-4.087.463.463,0,0,0-.43-.43,6.65,6.65,0,0,0-1.721-.43A10.761,10.761,0,0,0,7.314,4.3,5.416,5.416,0,0,0,5.378,8.6,5.508,5.508,0,0,0,7.1,12.692a5.877,5.877,0,0,0,4.087,1.721h0v.86a2.762,2.762,0,0,0,.86,2.151,3.133,3.133,0,0,0,1.936,1.291v3.872c0,.215,0,.215.215.43S14.413,23.233,14.628,23.233Z" fill="#fff"/>
</svg>
